<mxfile host="app.diagrams.net" agent="Mozilla/5.0 (Windows NT 10.0; Win64; x64) AppleWebKit/537.36 (KHTML, like Gecko) Chrome/138.0.0.0 Safari/537.36" version="27.2.0">
  <diagram name="Page-1" id="fDwoEURtIpvt3xiBMl5f">
    <mxGraphModel dx="2239" dy="1849" grid="1" gridSize="10" guides="1" tooltips="1" connect="1" arrows="1" fold="1" page="1" pageScale="1" pageWidth="850" pageHeight="1100" math="0" shadow="0">
      <root>
        <mxCell id="0" />
        <mxCell id="1" parent="0" />
        <mxCell id="xPF3pnEDGq-6sLINl6rj-294" value="" style="rounded=0;whiteSpace=wrap;html=1;" parent="1" vertex="1">
          <mxGeometry x="1070" y="-60" width="1140" height="700" as="geometry" />
        </mxCell>
        <mxCell id="xPF3pnEDGq-6sLINl6rj-271" value="" style="rounded=0;whiteSpace=wrap;html=1;" parent="1" vertex="1">
          <mxGeometry x="1090" y="489" width="550" height="121" as="geometry" />
        </mxCell>
        <mxCell id="xPF3pnEDGq-6sLINl6rj-51" value="" style="rounded=0;whiteSpace=wrap;html=1;" parent="1" vertex="1">
          <mxGeometry x="1742" y="313" width="410" height="271" as="geometry" />
        </mxCell>
        <mxCell id="xPF3pnEDGq-6sLINl6rj-46" value="" style="rounded=0;whiteSpace=wrap;html=1;" parent="1" vertex="1">
          <mxGeometry x="1660" y="3.5" width="520" height="136.5" as="geometry" />
        </mxCell>
        <mxCell id="xPF3pnEDGq-6sLINl6rj-3" value="" style="rounded=0;whiteSpace=wrap;html=1;" parent="1" vertex="1">
          <mxGeometry x="-130" y="-50" width="1130" height="900" as="geometry" />
        </mxCell>
        <mxCell id="EJIiIcD7muimOAzMRI6h-1" value="" style="rounded=0;whiteSpace=wrap;html=1;" parent="1" vertex="1">
          <mxGeometry x="-70" y="8" width="300" height="202" as="geometry" />
        </mxCell>
        <mxCell id="EJIiIcD7muimOAzMRI6h-2" value="&lt;font style=&quot;font-size: 14px;&quot;&gt;Login&lt;/font&gt;" style="rounded=0;whiteSpace=wrap;html=1;" parent="1" vertex="1">
          <mxGeometry x="-50" y="28" width="120" height="30" as="geometry" />
        </mxCell>
        <mxCell id="EJIiIcD7muimOAzMRI6h-3" value="Username/Email:" style="rounded=0;whiteSpace=wrap;html=1;" parent="1" vertex="1">
          <mxGeometry x="-50" y="68" width="260" height="30" as="geometry" />
        </mxCell>
        <mxCell id="EJIiIcD7muimOAzMRI6h-5" value="Password:" style="rounded=0;whiteSpace=wrap;html=1;" parent="1" vertex="1">
          <mxGeometry x="-50" y="108" width="260" height="30" as="geometry" />
        </mxCell>
        <mxCell id="EJIiIcD7muimOAzMRI6h-6" value="Create an Account" style="rounded=0;whiteSpace=wrap;html=1;" parent="1" vertex="1">
          <mxGeometry x="-50" y="148" width="80" height="40" as="geometry" />
        </mxCell>
        <mxCell id="EJIiIcD7muimOAzMRI6h-7" value="Forgot Password" style="rounded=0;whiteSpace=wrap;html=1;" parent="1" vertex="1">
          <mxGeometry x="40" y="148" width="80" height="40" as="geometry" />
        </mxCell>
        <mxCell id="EJIiIcD7muimOAzMRI6h-8" style="edgeStyle=orthogonalEdgeStyle;rounded=0;orthogonalLoop=1;jettySize=auto;html=1;exitX=0.5;exitY=1;exitDx=0;exitDy=0;" parent="1" source="EJIiIcD7muimOAzMRI6h-1" target="EJIiIcD7muimOAzMRI6h-1" edge="1">
          <mxGeometry relative="1" as="geometry" />
        </mxCell>
        <mxCell id="EJIiIcD7muimOAzMRI6h-10" value="" style="rounded=0;whiteSpace=wrap;html=1;" parent="1" vertex="1">
          <mxGeometry x="-70" y="239" width="220" height="310" as="geometry" />
        </mxCell>
        <mxCell id="EJIiIcD7muimOAzMRI6h-11" value="&lt;font style=&quot;font-size: 14px;&quot;&gt;Register&lt;/font&gt;" style="rounded=0;whiteSpace=wrap;html=1;" parent="1" vertex="1">
          <mxGeometry x="-50" y="258" width="120" height="30" as="geometry" />
        </mxCell>
        <mxCell id="EJIiIcD7muimOAzMRI6h-123" style="edgeStyle=orthogonalEdgeStyle;rounded=0;orthogonalLoop=1;jettySize=auto;html=1;exitX=0;exitY=0.25;exitDx=0;exitDy=0;entryX=0;entryY=0.75;entryDx=0;entryDy=0;" parent="1" source="EJIiIcD7muimOAzMRI6h-13" target="EJIiIcD7muimOAzMRI6h-1" edge="1">
          <mxGeometry relative="1" as="geometry">
            <Array as="points">
              <mxPoint x="-90" y="508" />
              <mxPoint x="-90" y="158" />
            </Array>
          </mxGeometry>
        </mxCell>
        <mxCell id="EJIiIcD7muimOAzMRI6h-13" value="Existing Account" style="rounded=0;whiteSpace=wrap;html=1;" parent="1" vertex="1">
          <mxGeometry x="-50" y="498" width="70" height="40" as="geometry" />
        </mxCell>
        <mxCell id="EJIiIcD7muimOAzMRI6h-14" style="edgeStyle=orthogonalEdgeStyle;rounded=0;orthogonalLoop=1;jettySize=auto;html=1;exitX=0.5;exitY=1;exitDx=0;exitDy=0;" parent="1" source="EJIiIcD7muimOAzMRI6h-10" target="EJIiIcD7muimOAzMRI6h-10" edge="1">
          <mxGeometry relative="1" as="geometry" />
        </mxCell>
        <mxCell id="EJIiIcD7muimOAzMRI6h-15" value="Email:" style="rounded=0;whiteSpace=wrap;html=1;" parent="1" vertex="1">
          <mxGeometry x="-50" y="298" width="180" height="30" as="geometry" />
        </mxCell>
        <mxCell id="EJIiIcD7muimOAzMRI6h-16" value="UserName:" style="rounded=0;whiteSpace=wrap;html=1;" parent="1" vertex="1">
          <mxGeometry x="-50" y="338" width="180" height="30" as="geometry" />
        </mxCell>
        <mxCell id="EJIiIcD7muimOAzMRI6h-17" value="Password:" style="rounded=0;whiteSpace=wrap;html=1;" parent="1" vertex="1">
          <mxGeometry x="-50" y="419" width="180" height="30" as="geometry" />
        </mxCell>
        <mxCell id="EJIiIcD7muimOAzMRI6h-18" value="Confirm Password:" style="rounded=0;whiteSpace=wrap;html=1;" parent="1" vertex="1">
          <mxGeometry x="-50" y="459" width="180" height="30" as="geometry" />
        </mxCell>
        <mxCell id="EJIiIcD7muimOAzMRI6h-19" value="Submit" style="rounded=0;whiteSpace=wrap;html=1;" parent="1" vertex="1">
          <mxGeometry x="60" y="498" width="70" height="40" as="geometry" />
        </mxCell>
        <mxCell id="EJIiIcD7muimOAzMRI6h-20" value="Submit" style="rounded=0;whiteSpace=wrap;html=1;" parent="1" vertex="1">
          <mxGeometry x="130" y="148" width="80" height="40" as="geometry" />
        </mxCell>
        <mxCell id="EJIiIcD7muimOAzMRI6h-23" style="edgeStyle=orthogonalEdgeStyle;rounded=0;orthogonalLoop=1;jettySize=auto;html=1;exitX=0.75;exitY=1;exitDx=0;exitDy=0;entryX=0.367;entryY=0.001;entryDx=0;entryDy=0;entryPerimeter=0;" parent="1" source="EJIiIcD7muimOAzMRI6h-6" target="EJIiIcD7muimOAzMRI6h-10" edge="1">
          <mxGeometry relative="1" as="geometry" />
        </mxCell>
        <mxCell id="EJIiIcD7muimOAzMRI6h-32" value="Phone Number:&amp;nbsp;" style="rounded=0;whiteSpace=wrap;html=1;" parent="1" vertex="1">
          <mxGeometry x="-50" y="379" width="180" height="30" as="geometry" />
        </mxCell>
        <mxCell id="EJIiIcD7muimOAzMRI6h-34" value="&lt;span style=&quot;color: rgba(0, 0, 0, 0); font-family: monospace; font-size: 0px; text-align: start; text-wrap-mode: nowrap;&quot;&gt;A&lt;/span&gt;" style="rounded=0;whiteSpace=wrap;html=1;" parent="1" vertex="1">
          <mxGeometry x="535" y="9" width="395" height="250" as="geometry" />
        </mxCell>
        <mxCell id="EJIiIcD7muimOAzMRI6h-35" value="Add A Pet" style="rounded=0;whiteSpace=wrap;html=1;" parent="1" vertex="1">
          <mxGeometry x="550" y="19" width="120" height="30" as="geometry" />
        </mxCell>
        <mxCell id="EJIiIcD7muimOAzMRI6h-36" style="edgeStyle=orthogonalEdgeStyle;rounded=0;orthogonalLoop=1;jettySize=auto;html=1;exitX=0.5;exitY=1;exitDx=0;exitDy=0;" parent="1" source="EJIiIcD7muimOAzMRI6h-35" target="EJIiIcD7muimOAzMRI6h-35" edge="1">
          <mxGeometry relative="1" as="geometry" />
        </mxCell>
        <mxCell id="EJIiIcD7muimOAzMRI6h-38" value="Name:" style="rounded=0;whiteSpace=wrap;html=1;" parent="1" vertex="1">
          <mxGeometry x="550" y="59" width="180" height="30" as="geometry" />
        </mxCell>
        <mxCell id="EJIiIcD7muimOAzMRI6h-39" value="Type&amp;nbsp; &amp;nbsp; &amp;nbsp; &amp;nbsp; &amp;nbsp; &amp;nbsp; &amp;nbsp; &amp;nbsp; &amp;nbsp; &amp;nbsp;V (Dropdown)" style="rounded=0;whiteSpace=wrap;html=1;" parent="1" vertex="1">
          <mxGeometry x="550" y="99" width="180" height="30" as="geometry" />
        </mxCell>
        <mxCell id="EJIiIcD7muimOAzMRI6h-40" value="Breed:" style="rounded=0;whiteSpace=wrap;html=1;" parent="1" vertex="1">
          <mxGeometry x="550" y="139" width="180" height="30" as="geometry" />
        </mxCell>
        <mxCell id="EJIiIcD7muimOAzMRI6h-41" value="Age:" style="rounded=0;whiteSpace=wrap;html=1;" parent="1" vertex="1">
          <mxGeometry x="550" y="179" width="180" height="30" as="geometry" />
        </mxCell>
        <mxCell id="EJIiIcD7muimOAzMRI6h-42" value="Accommodations:" style="rounded=0;whiteSpace=wrap;html=1;" parent="1" vertex="1">
          <mxGeometry x="740" y="59" width="180" height="110" as="geometry" />
        </mxCell>
        <mxCell id="EJIiIcD7muimOAzMRI6h-43" value="Emergency Contact:" style="rounded=0;whiteSpace=wrap;html=1;" parent="1" vertex="1">
          <mxGeometry x="740" y="179" width="180" height="30" as="geometry" />
        </mxCell>
        <mxCell id="EJIiIcD7muimOAzMRI6h-44" value="Add Pet" style="rounded=0;whiteSpace=wrap;html=1;" parent="1" vertex="1">
          <mxGeometry x="740" y="218" width="180" height="30" as="geometry" />
        </mxCell>
        <mxCell id="EJIiIcD7muimOAzMRI6h-45" value="" style="rounded=0;whiteSpace=wrap;html=1;" parent="1" vertex="1">
          <mxGeometry x="420" y="328" width="520" height="130" as="geometry" />
        </mxCell>
        <mxCell id="EJIiIcD7muimOAzMRI6h-46" value="&lt;font style=&quot;font-size: 14px;&quot;&gt;My Pets&lt;/font&gt;" style="rounded=0;whiteSpace=wrap;html=1;" parent="1" vertex="1">
          <mxGeometry x="640" y="337" width="80" height="20" as="geometry" />
        </mxCell>
        <mxCell id="EJIiIcD7muimOAzMRI6h-49" value="Name" style="rounded=0;whiteSpace=wrap;html=1;" parent="1" vertex="1">
          <mxGeometry x="475" y="366" width="90" height="21" as="geometry" />
        </mxCell>
        <mxCell id="EJIiIcD7muimOAzMRI6h-50" value="Breed" style="rounded=0;whiteSpace=wrap;html=1;" parent="1" vertex="1">
          <mxGeometry x="575" y="366" width="90" height="21" as="geometry" />
        </mxCell>
        <mxCell id="EJIiIcD7muimOAzMRI6h-51" value="Bookings" style="rounded=0;whiteSpace=wrap;html=1;" parent="1" vertex="1">
          <mxGeometry x="675" y="368" width="80" height="21" as="geometry" />
        </mxCell>
        <mxCell id="EJIiIcD7muimOAzMRI6h-52" value="Accommodations" style="rounded=0;whiteSpace=wrap;html=1;" parent="1" vertex="1">
          <mxGeometry x="765" y="368" width="100" height="21" as="geometry" />
        </mxCell>
        <mxCell id="EJIiIcD7muimOAzMRI6h-54" value="......." style="text;html=1;align=center;verticalAlign=middle;whiteSpace=wrap;rounded=0;" parent="1" vertex="1">
          <mxGeometry x="490" y="387" width="60" height="20" as="geometry" />
        </mxCell>
        <mxCell id="EJIiIcD7muimOAzMRI6h-55" value="....." style="text;html=1;align=center;verticalAlign=middle;whiteSpace=wrap;rounded=0;" parent="1" vertex="1">
          <mxGeometry x="590" y="382" width="60" height="30" as="geometry" />
        </mxCell>
        <mxCell id="EJIiIcD7muimOAzMRI6h-56" value="....." style="text;html=1;align=center;verticalAlign=middle;whiteSpace=wrap;rounded=0;" parent="1" vertex="1">
          <mxGeometry x="685" y="382" width="60" height="30" as="geometry" />
        </mxCell>
        <mxCell id="EJIiIcD7muimOAzMRI6h-57" value=".................." style="text;html=1;align=center;verticalAlign=middle;whiteSpace=wrap;rounded=0;" parent="1" vertex="1">
          <mxGeometry x="785" y="382" width="60" height="30" as="geometry" />
        </mxCell>
        <mxCell id="EJIiIcD7muimOAzMRI6h-59" value="Delete" style="rounded=0;whiteSpace=wrap;html=1;" parent="1" vertex="1">
          <mxGeometry x="875" y="391" width="55" height="17" as="geometry" />
        </mxCell>
        <mxCell id="EJIiIcD7muimOAzMRI6h-60" value="......." style="text;html=1;align=center;verticalAlign=middle;whiteSpace=wrap;rounded=0;" parent="1" vertex="1">
          <mxGeometry x="490" y="407" width="60" height="20" as="geometry" />
        </mxCell>
        <mxCell id="EJIiIcD7muimOAzMRI6h-62" value="....." style="text;html=1;align=center;verticalAlign=middle;whiteSpace=wrap;rounded=0;" parent="1" vertex="1">
          <mxGeometry x="590" y="402" width="60" height="30" as="geometry" />
        </mxCell>
        <mxCell id="EJIiIcD7muimOAzMRI6h-63" value="N/A" style="text;html=1;align=center;verticalAlign=middle;whiteSpace=wrap;rounded=0;" parent="1" vertex="1">
          <mxGeometry x="685" y="404.5" width="60" height="30" as="geometry" />
        </mxCell>
        <mxCell id="EJIiIcD7muimOAzMRI6h-64" value=".................." style="text;html=1;align=center;verticalAlign=middle;whiteSpace=wrap;rounded=0;" parent="1" vertex="1">
          <mxGeometry x="785" y="398" width="60" height="30" as="geometry" />
        </mxCell>
        <mxCell id="EJIiIcD7muimOAzMRI6h-65" value="Delete" style="rounded=0;whiteSpace=wrap;html=1;" parent="1" vertex="1">
          <mxGeometry x="875" y="411" width="55" height="17" as="geometry" />
        </mxCell>
        <mxCell id="EJIiIcD7muimOAzMRI6h-66" value="Edit" style="rounded=0;whiteSpace=wrap;html=1;" parent="1" vertex="1">
          <mxGeometry x="430" y="389.5" width="40" height="18.5" as="geometry" />
        </mxCell>
        <mxCell id="EJIiIcD7muimOAzMRI6h-68" value="Edit" style="rounded=0;whiteSpace=wrap;html=1;" parent="1" vertex="1">
          <mxGeometry x="430" y="410.25" width="40" height="18.5" as="geometry" />
        </mxCell>
        <mxCell id="EJIiIcD7muimOAzMRI6h-69" value="Add New Pet" style="rounded=0;whiteSpace=wrap;html=1;" parent="1" vertex="1">
          <mxGeometry x="775" y="432" width="155" height="20" as="geometry" />
        </mxCell>
        <mxCell id="EJIiIcD7muimOAzMRI6h-73" value="" style="rounded=0;whiteSpace=wrap;html=1;" parent="1" vertex="1">
          <mxGeometry x="390" y="510" width="560" height="140" as="geometry" />
        </mxCell>
        <mxCell id="EJIiIcD7muimOAzMRI6h-74" value="&lt;font style=&quot;font-size: 14px;&quot;&gt;Create A Booking&lt;/font&gt;" style="rounded=0;whiteSpace=wrap;html=1;" parent="1" vertex="1">
          <mxGeometry x="602.5" y="520" width="135" height="20" as="geometry" />
        </mxCell>
        <mxCell id="EJIiIcD7muimOAzMRI6h-75" value="Select Pet&amp;nbsp; &amp;nbsp; &amp;nbsp; &amp;nbsp; &amp;nbsp; V (Dropdown)" style="rounded=0;whiteSpace=wrap;html=1;" parent="1" vertex="1">
          <mxGeometry x="400" y="579" width="180" height="20" as="geometry" />
        </mxCell>
        <mxCell id="EJIiIcD7muimOAzMRI6h-76" value="Pets" style="rounded=0;whiteSpace=wrap;html=1;" parent="1" vertex="1">
          <mxGeometry x="400" y="550" width="180" height="20" as="geometry" />
        </mxCell>
        <mxCell id="EJIiIcD7muimOAzMRI6h-77" value="Book In Time" style="rounded=0;whiteSpace=wrap;html=1;" parent="1" vertex="1">
          <mxGeometry x="587.5" y="550" width="172.5" height="20" as="geometry" />
        </mxCell>
        <mxCell id="EJIiIcD7muimOAzMRI6h-79" value="Book Out Time" style="rounded=0;whiteSpace=wrap;html=1;" parent="1" vertex="1">
          <mxGeometry x="770" y="550" width="170" height="20" as="geometry" />
        </mxCell>
        <mxCell id="EJIiIcD7muimOAzMRI6h-80" value="Select Time&amp;nbsp; &amp;nbsp; &amp;nbsp; &amp;nbsp; V (Dropdown)" style="rounded=0;whiteSpace=wrap;html=1;" parent="1" vertex="1">
          <mxGeometry x="587.5" y="579" width="172.5" height="20" as="geometry" />
        </mxCell>
        <mxCell id="EJIiIcD7muimOAzMRI6h-81" value="Select Time&amp;nbsp; &amp;nbsp; &amp;nbsp; &amp;nbsp; V (Dropdown)" style="rounded=0;whiteSpace=wrap;html=1;" parent="1" vertex="1">
          <mxGeometry x="770" y="579" width="170" height="20" as="geometry" />
        </mxCell>
        <mxCell id="EJIiIcD7muimOAzMRI6h-83" value="Confirm Booking" style="rounded=0;whiteSpace=wrap;html=1;" parent="1" vertex="1">
          <mxGeometry x="835" y="610" width="105" height="31" as="geometry" />
        </mxCell>
        <mxCell id="EJIiIcD7muimOAzMRI6h-84" value="&lt;div style=&quot;text-align: start;&quot;&gt;&lt;span style=&quot;background-color: transparent; color: light-dark(rgb(0, 0, 0), rgb(255, 255, 255));&quot;&gt;Pet Not Here?&amp;nbsp; &amp;nbsp; &amp;nbsp; Add Pet&lt;/span&gt;&lt;/div&gt;" style="rounded=0;whiteSpace=wrap;html=1;" parent="1" vertex="1">
          <mxGeometry x="400" y="610" width="160" height="29" as="geometry" />
        </mxCell>
        <mxCell id="EJIiIcD7muimOAzMRI6h-89" value="" style="rounded=0;whiteSpace=wrap;html=1;" parent="1" vertex="1">
          <mxGeometry x="420" y="690" width="520" height="120" as="geometry" />
        </mxCell>
        <mxCell id="EJIiIcD7muimOAzMRI6h-90" value="&lt;font style=&quot;font-size: 14px;&quot;&gt;My Bookings&lt;/font&gt;" style="rounded=0;whiteSpace=wrap;html=1;" parent="1" vertex="1">
          <mxGeometry x="648.75" y="699" width="110" height="20" as="geometry" />
        </mxCell>
        <mxCell id="EJIiIcD7muimOAzMRI6h-91" value="Pet Name" style="rounded=0;whiteSpace=wrap;html=1;" parent="1" vertex="1">
          <mxGeometry x="475" y="728" width="90" height="21" as="geometry" />
        </mxCell>
        <mxCell id="EJIiIcD7muimOAzMRI6h-92" value="Bookin Time" style="rounded=0;whiteSpace=wrap;html=1;" parent="1" vertex="1">
          <mxGeometry x="575" y="728" width="90" height="21" as="geometry" />
        </mxCell>
        <mxCell id="EJIiIcD7muimOAzMRI6h-93" value="Bookout Time" style="rounded=0;whiteSpace=wrap;html=1;" parent="1" vertex="1">
          <mxGeometry x="675" y="730" width="80" height="21" as="geometry" />
        </mxCell>
        <mxCell id="EJIiIcD7muimOAzMRI6h-94" value="Care Taker Info" style="rounded=0;whiteSpace=wrap;html=1;" parent="1" vertex="1">
          <mxGeometry x="765" y="730" width="100" height="21" as="geometry" />
        </mxCell>
        <mxCell id="EJIiIcD7muimOAzMRI6h-95" value="......." style="text;html=1;align=center;verticalAlign=middle;whiteSpace=wrap;rounded=0;" parent="1" vertex="1">
          <mxGeometry x="490" y="749" width="60" height="20" as="geometry" />
        </mxCell>
        <mxCell id="EJIiIcD7muimOAzMRI6h-96" value="....." style="text;html=1;align=center;verticalAlign=middle;whiteSpace=wrap;rounded=0;" parent="1" vertex="1">
          <mxGeometry x="590" y="744" width="60" height="30" as="geometry" />
        </mxCell>
        <mxCell id="EJIiIcD7muimOAzMRI6h-97" value="....." style="text;html=1;align=center;verticalAlign=middle;whiteSpace=wrap;rounded=0;" parent="1" vertex="1">
          <mxGeometry x="685" y="744" width="60" height="30" as="geometry" />
        </mxCell>
        <mxCell id="EJIiIcD7muimOAzMRI6h-98" value=".................." style="text;html=1;align=center;verticalAlign=middle;whiteSpace=wrap;rounded=0;" parent="1" vertex="1">
          <mxGeometry x="785" y="744" width="60" height="30" as="geometry" />
        </mxCell>
        <mxCell id="EJIiIcD7muimOAzMRI6h-99" value="Delete" style="rounded=0;whiteSpace=wrap;html=1;" parent="1" vertex="1">
          <mxGeometry x="875" y="753" width="55" height="17" as="geometry" />
        </mxCell>
        <mxCell id="EJIiIcD7muimOAzMRI6h-105" value="Edit" style="rounded=0;whiteSpace=wrap;html=1;" parent="1" vertex="1">
          <mxGeometry x="430" y="751.5" width="40" height="18.5" as="geometry" />
        </mxCell>
        <mxCell id="B6rIRGDG49esHp6nmPDQ-17" style="edgeStyle=orthogonalEdgeStyle;rounded=0;orthogonalLoop=1;jettySize=auto;html=1;exitX=1;exitY=0.5;exitDx=0;exitDy=0;entryX=1;entryY=1;entryDx=0;entryDy=0;" parent="1" source="EJIiIcD7muimOAzMRI6h-107" target="EJIiIcD7muimOAzMRI6h-73" edge="1">
          <mxGeometry relative="1" as="geometry" />
        </mxCell>
        <mxCell id="EJIiIcD7muimOAzMRI6h-107" value="Add New Booking" style="rounded=0;whiteSpace=wrap;html=1;" parent="1" vertex="1">
          <mxGeometry x="775" y="780" width="155" height="20" as="geometry" />
        </mxCell>
        <mxCell id="EJIiIcD7muimOAzMRI6h-112" value="" style="rounded=0;whiteSpace=wrap;html=1;" parent="1" vertex="1">
          <mxGeometry x="250" y="10" width="170" height="210" as="geometry" />
        </mxCell>
        <mxCell id="EJIiIcD7muimOAzMRI6h-113" value="Reset Pasword" style="rounded=0;whiteSpace=wrap;html=1;" parent="1" vertex="1">
          <mxGeometry x="275" y="19" width="120" height="31" as="geometry" />
        </mxCell>
        <mxCell id="EJIiIcD7muimOAzMRI6h-114" value="Code Sent to Email:" style="rounded=0;whiteSpace=wrap;html=1;" parent="1" vertex="1">
          <mxGeometry x="260" y="68" width="150" height="32" as="geometry" />
        </mxCell>
        <mxCell id="EJIiIcD7muimOAzMRI6h-115" value="New Password:" style="rounded=0;whiteSpace=wrap;html=1;" parent="1" vertex="1">
          <mxGeometry x="260" y="109" width="150" height="31" as="geometry" />
        </mxCell>
        <mxCell id="EJIiIcD7muimOAzMRI6h-116" value="Confirm Password:" style="rounded=0;whiteSpace=wrap;html=1;" parent="1" vertex="1">
          <mxGeometry x="260" y="148" width="150" height="31" as="geometry" />
        </mxCell>
        <mxCell id="EJIiIcD7muimOAzMRI6h-117" value="Resend Code" style="rounded=0;whiteSpace=wrap;html=1;" parent="1" vertex="1">
          <mxGeometry x="260" y="188" width="80" height="22" as="geometry" />
        </mxCell>
        <mxCell id="EJIiIcD7muimOAzMRI6h-119" value="Confirm" style="rounded=0;whiteSpace=wrap;html=1;" parent="1" vertex="1">
          <mxGeometry x="350" y="188" width="60" height="22" as="geometry" />
        </mxCell>
        <mxCell id="EJIiIcD7muimOAzMRI6h-121" style="edgeStyle=orthogonalEdgeStyle;rounded=0;orthogonalLoop=1;jettySize=auto;html=1;exitX=0.75;exitY=1;exitDx=0;exitDy=0;entryX=0.03;entryY=0.898;entryDx=0;entryDy=0;entryPerimeter=0;" parent="1" source="EJIiIcD7muimOAzMRI6h-7" target="EJIiIcD7muimOAzMRI6h-112" edge="1">
          <mxGeometry relative="1" as="geometry">
            <Array as="points">
              <mxPoint x="100" y="199" />
            </Array>
          </mxGeometry>
        </mxCell>
        <mxCell id="B6rIRGDG49esHp6nmPDQ-1" value="" style="rounded=0;whiteSpace=wrap;html=1;" parent="1" vertex="1">
          <mxGeometry x="-70" y="589" width="390" height="241" as="geometry" />
        </mxCell>
        <mxCell id="B6rIRGDG49esHp6nmPDQ-2" value="&lt;font style=&quot;font-size: 14px;&quot;&gt;Contact Us&lt;/font&gt;" style="rounded=0;whiteSpace=wrap;html=1;" parent="1" vertex="1">
          <mxGeometry x="80" y="600" width="100" height="19" as="geometry" />
        </mxCell>
        <mxCell id="B6rIRGDG49esHp6nmPDQ-3" value="First Name:" style="rounded=0;whiteSpace=wrap;html=1;" parent="1" vertex="1">
          <mxGeometry x="-60" y="630" width="180" height="30" as="geometry" />
        </mxCell>
        <mxCell id="B6rIRGDG49esHp6nmPDQ-4" value="Last Name:" style="rounded=0;whiteSpace=wrap;html=1;" parent="1" vertex="1">
          <mxGeometry x="-60" y="670" width="180" height="31" as="geometry" />
        </mxCell>
        <mxCell id="B6rIRGDG49esHp6nmPDQ-5" value="Email:" style="rounded=0;whiteSpace=wrap;html=1;" parent="1" vertex="1">
          <mxGeometry x="-60" y="710" width="180" height="30" as="geometry" />
        </mxCell>
        <mxCell id="B6rIRGDG49esHp6nmPDQ-6" value="Phone Number:" style="rounded=0;whiteSpace=wrap;html=1;" parent="1" vertex="1">
          <mxGeometry x="-60" y="750" width="180" height="30" as="geometry" />
        </mxCell>
        <mxCell id="B6rIRGDG49esHp6nmPDQ-8" value="Reason For Contact&amp;nbsp; &amp;nbsp; &amp;nbsp; &amp;nbsp; &amp;nbsp;V (Dropdown)" style="rounded=0;whiteSpace=wrap;html=1;" parent="1" vertex="1">
          <mxGeometry x="130" y="629" width="180" height="31" as="geometry" />
        </mxCell>
        <mxCell id="B6rIRGDG49esHp6nmPDQ-11" value="Basic Info:" style="rounded=0;whiteSpace=wrap;html=1;" parent="1" vertex="1">
          <mxGeometry x="130" y="670" width="180" height="110" as="geometry" />
        </mxCell>
        <mxCell id="B6rIRGDG49esHp6nmPDQ-12" value="Submit" style="rounded=0;whiteSpace=wrap;html=1;" parent="1" vertex="1">
          <mxGeometry x="220" y="790" width="90" height="30" as="geometry" />
        </mxCell>
        <mxCell id="B6rIRGDG49esHp6nmPDQ-13" style="edgeStyle=orthogonalEdgeStyle;rounded=0;orthogonalLoop=1;jettySize=auto;html=1;exitX=1;exitY=0.5;exitDx=0;exitDy=0;entryX=1.003;entryY=0.883;entryDx=0;entryDy=0;entryPerimeter=0;" parent="1" source="EJIiIcD7muimOAzMRI6h-69" target="EJIiIcD7muimOAzMRI6h-34" edge="1">
          <mxGeometry relative="1" as="geometry">
            <Array as="points">
              <mxPoint x="960" y="442" />
              <mxPoint x="960" y="230" />
            </Array>
          </mxGeometry>
        </mxCell>
        <mxCell id="B6rIRGDG49esHp6nmPDQ-14" style="edgeStyle=orthogonalEdgeStyle;rounded=0;orthogonalLoop=1;jettySize=auto;html=1;exitX=0;exitY=0.5;exitDx=0;exitDy=0;entryX=-0.002;entryY=0.941;entryDx=0;entryDy=0;entryPerimeter=0;" parent="1" source="EJIiIcD7muimOAzMRI6h-84" target="EJIiIcD7muimOAzMRI6h-34" edge="1">
          <mxGeometry relative="1" as="geometry" />
        </mxCell>
        <mxCell id="B6rIRGDG49esHp6nmPDQ-19" value="" style="rounded=0;whiteSpace=wrap;html=1;" parent="1" vertex="1">
          <mxGeometry x="-450" y="-90" width="120" height="60" as="geometry" />
        </mxCell>
        <mxCell id="xPF3pnEDGq-6sLINl6rj-1" value="&lt;font style=&quot;font-size: 18px;&quot;&gt;User Interface&lt;/font&gt;" style="rounded=0;whiteSpace=wrap;html=1;" parent="1" vertex="1">
          <mxGeometry x="315" y="-60" width="260" height="40" as="geometry" />
        </mxCell>
        <mxCell id="xPF3pnEDGq-6sLINl6rj-5" value="&lt;font style=&quot;font-size: 18px;&quot;&gt;Admin Interface&lt;/font&gt;" style="rounded=0;whiteSpace=wrap;html=1;" parent="1" vertex="1">
          <mxGeometry x="1520" y="-80" width="260" height="40" as="geometry" />
        </mxCell>
        <mxCell id="xPF3pnEDGq-6sLINl6rj-6" value="" style="rounded=0;whiteSpace=wrap;html=1;" parent="1" vertex="1">
          <mxGeometry x="1120" y="-1" width="330" height="270" as="geometry" />
        </mxCell>
        <mxCell id="xPF3pnEDGq-6sLINl6rj-7" value="&lt;font style=&quot;font-size: 14px;&quot;&gt;Contact Us Submissions&lt;/font&gt;" style="rounded=0;whiteSpace=wrap;html=1;" parent="1" vertex="1">
          <mxGeometry x="1140" y="16" width="180" height="31" as="geometry" />
        </mxCell>
        <mxCell id="xPF3pnEDGq-6sLINl6rj-8" value="ID" style="rounded=0;whiteSpace=wrap;html=1;" parent="1" vertex="1">
          <mxGeometry x="1140" y="77" width="30" height="16.5" as="geometry" />
        </mxCell>
        <mxCell id="xPF3pnEDGq-6sLINl6rj-12" value="Name #1" style="rounded=0;whiteSpace=wrap;html=1;" parent="1" vertex="1">
          <mxGeometry x="1180" y="77" width="120" height="16.5" as="geometry" />
        </mxCell>
        <mxCell id="xPF3pnEDGq-6sLINl6rj-13" value="Email" style="rounded=0;whiteSpace=wrap;html=1;" parent="1" vertex="1">
          <mxGeometry x="1310" y="75.25" width="60" height="18.25" as="geometry" />
        </mxCell>
        <mxCell id="xPF3pnEDGq-6sLINl6rj-14" value="Reason for Complaint" style="rounded=0;whiteSpace=wrap;html=1;" parent="1" vertex="1">
          <mxGeometry x="1140" y="107" width="60" height="41" as="geometry" />
        </mxCell>
        <mxCell id="xPF3pnEDGq-6sLINl6rj-17" value="Basic Info" style="rounded=0;whiteSpace=wrap;html=1;" parent="1" vertex="1">
          <mxGeometry x="1210" y="108.5" width="160" height="41" as="geometry" />
        </mxCell>
        <mxCell id="xPF3pnEDGq-6sLINl6rj-19" value="" style="endArrow=none;dashed=1;html=1;rounded=0;entryX=1;entryY=0.617;entryDx=0;entryDy=0;entryPerimeter=0;" parent="1" target="xPF3pnEDGq-6sLINl6rj-6" edge="1">
          <mxGeometry width="50" height="50" relative="1" as="geometry">
            <mxPoint x="1120" y="167.5" as="sourcePoint" />
            <mxPoint x="1170" y="117.5" as="targetPoint" />
          </mxGeometry>
        </mxCell>
        <mxCell id="xPF3pnEDGq-6sLINl6rj-21" value="ID" style="rounded=0;whiteSpace=wrap;html=1;" parent="1" vertex="1">
          <mxGeometry x="1140" y="180.5" width="30" height="16.5" as="geometry" />
        </mxCell>
        <mxCell id="xPF3pnEDGq-6sLINl6rj-22" value="Name #2" style="rounded=0;whiteSpace=wrap;html=1;" parent="1" vertex="1">
          <mxGeometry x="1180" y="180.5" width="120" height="16.5" as="geometry" />
        </mxCell>
        <mxCell id="xPF3pnEDGq-6sLINl6rj-23" style="edgeStyle=orthogonalEdgeStyle;rounded=0;orthogonalLoop=1;jettySize=auto;html=1;exitX=0.5;exitY=1;exitDx=0;exitDy=0;" parent="1" source="xPF3pnEDGq-6sLINl6rj-22" target="xPF3pnEDGq-6sLINl6rj-22" edge="1">
          <mxGeometry relative="1" as="geometry" />
        </mxCell>
        <mxCell id="xPF3pnEDGq-6sLINl6rj-24" value="Email" style="rounded=0;whiteSpace=wrap;html=1;" parent="1" vertex="1">
          <mxGeometry x="1310" y="178.75" width="60" height="18.25" as="geometry" />
        </mxCell>
        <mxCell id="xPF3pnEDGq-6sLINl6rj-25" value="Reason for Complaint" style="rounded=0;whiteSpace=wrap;html=1;" parent="1" vertex="1">
          <mxGeometry x="1140" y="209" width="60" height="41" as="geometry" />
        </mxCell>
        <mxCell id="xPF3pnEDGq-6sLINl6rj-26" value="Basic Info" style="rounded=0;whiteSpace=wrap;html=1;" parent="1" vertex="1">
          <mxGeometry x="1210" y="209" width="160" height="41" as="geometry" />
        </mxCell>
        <mxCell id="xPF3pnEDGq-6sLINl6rj-29" value="Reply" style="rounded=0;whiteSpace=wrap;html=1;" parent="1" vertex="1">
          <mxGeometry x="1390" y="93.5" width="50" height="39" as="geometry" />
        </mxCell>
        <mxCell id="xPF3pnEDGq-6sLINl6rj-32" value="Reply" style="rounded=0;whiteSpace=wrap;html=1;" parent="1" vertex="1">
          <mxGeometry x="1390" y="192.5" width="50" height="39" as="geometry" />
        </mxCell>
        <mxCell id="xPF3pnEDGq-6sLINl6rj-33" value="" style="endArrow=none;dashed=1;html=1;rounded=0;entryX=1;entryY=0.25;entryDx=0;entryDy=0;" parent="1" target="xPF3pnEDGq-6sLINl6rj-6" edge="1">
          <mxGeometry width="50" height="50" relative="1" as="geometry">
            <mxPoint x="1120" y="66" as="sourcePoint" />
            <mxPoint x="1170" y="16" as="targetPoint" />
          </mxGeometry>
        </mxCell>
        <mxCell id="xPF3pnEDGq-6sLINl6rj-35" value="&lt;font style=&quot;font-size: 14px;&quot;&gt;Bookings&lt;/font&gt;" style="rounded=0;whiteSpace=wrap;html=1;" parent="1" vertex="1">
          <mxGeometry x="1865" y="19" width="110" height="20" as="geometry" />
        </mxCell>
        <mxCell id="xPF3pnEDGq-6sLINl6rj-36" value="Pet Name" style="rounded=0;whiteSpace=wrap;html=1;" parent="1" vertex="1">
          <mxGeometry x="1715" y="59" width="90" height="21" as="geometry" />
        </mxCell>
        <mxCell id="xPF3pnEDGq-6sLINl6rj-37" value="Bookin Time" style="rounded=0;whiteSpace=wrap;html=1;" parent="1" vertex="1">
          <mxGeometry x="1815" y="59" width="90" height="21" as="geometry" />
        </mxCell>
        <mxCell id="xPF3pnEDGq-6sLINl6rj-38" value="Bookout Time" style="rounded=0;whiteSpace=wrap;html=1;" parent="1" vertex="1">
          <mxGeometry x="1915" y="59" width="80" height="22" as="geometry" />
        </mxCell>
        <mxCell id="xPF3pnEDGq-6sLINl6rj-39" value="Care Taker Info" style="rounded=0;whiteSpace=wrap;html=1;" parent="1" vertex="1">
          <mxGeometry x="2005" y="58" width="100" height="22" as="geometry" />
        </mxCell>
        <mxCell id="xPF3pnEDGq-6sLINl6rj-40" value="......." style="text;html=1;align=center;verticalAlign=middle;whiteSpace=wrap;rounded=0;" parent="1" vertex="1">
          <mxGeometry x="1730" y="80" width="60" height="20" as="geometry" />
        </mxCell>
        <mxCell id="xPF3pnEDGq-6sLINl6rj-41" value="....." style="text;html=1;align=center;verticalAlign=middle;whiteSpace=wrap;rounded=0;" parent="1" vertex="1">
          <mxGeometry x="1830" y="75" width="60" height="30" as="geometry" />
        </mxCell>
        <mxCell id="xPF3pnEDGq-6sLINl6rj-42" value="....." style="text;html=1;align=center;verticalAlign=middle;whiteSpace=wrap;rounded=0;" parent="1" vertex="1">
          <mxGeometry x="1925" y="75" width="60" height="30" as="geometry" />
        </mxCell>
        <mxCell id="xPF3pnEDGq-6sLINl6rj-43" value=".................." style="text;html=1;align=center;verticalAlign=middle;whiteSpace=wrap;rounded=0;" parent="1" vertex="1">
          <mxGeometry x="2025" y="75" width="60" height="30" as="geometry" />
        </mxCell>
        <mxCell id="xPF3pnEDGq-6sLINl6rj-44" value="Edit" style="rounded=0;whiteSpace=wrap;html=1;" parent="1" vertex="1">
          <mxGeometry x="1670" y="82.5" width="40" height="18.5" as="geometry" />
        </mxCell>
        <mxCell id="xPF3pnEDGq-6sLINl6rj-45" value="Delete" style="rounded=0;whiteSpace=wrap;html=1;" parent="1" vertex="1">
          <mxGeometry x="2110" y="84" width="55" height="17" as="geometry" />
        </mxCell>
        <mxCell id="xPF3pnEDGq-6sLINl6rj-49" value="Add New Booking" style="rounded=0;whiteSpace=wrap;html=1;" parent="1" vertex="1">
          <mxGeometry x="2010" y="113" width="155" height="20" as="geometry" />
        </mxCell>
        <mxCell id="xPF3pnEDGq-6sLINl6rj-50" value="&lt;font style=&quot;font-size: 14px;&quot;&gt;Today&#39;s Bookings&lt;/font&gt;" style="rounded=0;whiteSpace=wrap;html=1;" parent="1" vertex="1">
          <mxGeometry x="1869.5" y="323" width="155" height="20.25" as="geometry" />
        </mxCell>
        <mxCell id="xPF3pnEDGq-6sLINl6rj-52" value="Check-Ins" style="rounded=0;whiteSpace=wrap;html=1;" parent="1" vertex="1">
          <mxGeometry x="1762" y="357.5" width="100" height="26.5" as="geometry" />
        </mxCell>
        <mxCell id="xPF3pnEDGq-6sLINl6rj-53" value="Check-Outs" style="rounded=0;whiteSpace=wrap;html=1;" parent="1" vertex="1">
          <mxGeometry x="1967" y="357.5" width="100" height="26.5" as="geometry" />
        </mxCell>
        <mxCell id="xPF3pnEDGq-6sLINl6rj-54" value="Pet Name #1" style="rounded=0;whiteSpace=wrap;html=1;" parent="1" vertex="1">
          <mxGeometry x="1762" y="402" width="100" height="22" as="geometry" />
        </mxCell>
        <mxCell id="xPF3pnEDGq-6sLINl6rj-55" value="Check-In Time" style="rounded=0;whiteSpace=wrap;html=1;" parent="1" vertex="1">
          <mxGeometry x="1762" y="434" width="100" height="22" as="geometry" />
        </mxCell>
        <mxCell id="xPF3pnEDGq-6sLINl6rj-56" value="Check&amp;nbsp;&lt;div&gt;In&lt;/div&gt;" style="rounded=0;whiteSpace=wrap;html=1;" parent="1" vertex="1">
          <mxGeometry x="1877" y="404" width="55" height="52.5" as="geometry" />
        </mxCell>
        <mxCell id="xPF3pnEDGq-6sLINl6rj-57" value="" style="endArrow=none;dashed=1;html=1;rounded=0;" parent="1" edge="1">
          <mxGeometry width="50" height="50" relative="1" as="geometry">
            <mxPoint x="1957" y="534" as="sourcePoint" />
            <mxPoint x="1957" y="346.5" as="targetPoint" />
          </mxGeometry>
        </mxCell>
        <mxCell id="xPF3pnEDGq-6sLINl6rj-58" value="Pet Name #1" style="rounded=0;whiteSpace=wrap;html=1;" parent="1" vertex="1">
          <mxGeometry x="1967" y="402" width="100" height="22" as="geometry" />
        </mxCell>
        <mxCell id="xPF3pnEDGq-6sLINl6rj-59" value="Check-Out Time" style="rounded=0;whiteSpace=wrap;html=1;" parent="1" vertex="1">
          <mxGeometry x="1967" y="434" width="100" height="22" as="geometry" />
        </mxCell>
        <mxCell id="xPF3pnEDGq-6sLINl6rj-60" value="Check&amp;nbsp;&lt;div&gt;Out&lt;/div&gt;" style="rounded=0;whiteSpace=wrap;html=1;" parent="1" vertex="1">
          <mxGeometry x="2080" y="404" width="55" height="52.5" as="geometry" />
        </mxCell>
        <mxCell id="xPF3pnEDGq-6sLINl6rj-61" value="" style="endArrow=none;dashed=1;html=1;rounded=0;entryX=1.005;entryY=0.3;entryDx=0;entryDy=0;entryPerimeter=0;" parent="1" target="xPF3pnEDGq-6sLINl6rj-51" edge="1">
          <mxGeometry width="50" height="50" relative="1" as="geometry">
            <mxPoint x="1740" y="394" as="sourcePoint" />
            <mxPoint x="1792" y="342" as="targetPoint" />
          </mxGeometry>
        </mxCell>
        <mxCell id="xPF3pnEDGq-6sLINl6rj-62" value="" style="endArrow=none;dashed=1;html=1;rounded=0;entryX=0.995;entryY=0.582;entryDx=0;entryDy=0;entryPerimeter=0;" parent="1" target="xPF3pnEDGq-6sLINl6rj-51" edge="1">
          <mxGeometry width="50" height="50" relative="1" as="geometry">
            <mxPoint x="1742" y="472" as="sourcePoint" />
            <mxPoint x="1792" y="422" as="targetPoint" />
          </mxGeometry>
        </mxCell>
        <mxCell id="xPF3pnEDGq-6sLINl6rj-63" value="Pet Name #2" style="rounded=0;whiteSpace=wrap;html=1;" parent="1" vertex="1">
          <mxGeometry x="1762" y="481" width="100" height="22" as="geometry" />
        </mxCell>
        <mxCell id="xPF3pnEDGq-6sLINl6rj-65" value="Check-In Time" style="rounded=0;whiteSpace=wrap;html=1;" parent="1" vertex="1">
          <mxGeometry x="1762" y="513" width="100" height="22" as="geometry" />
        </mxCell>
        <mxCell id="xPF3pnEDGq-6sLINl6rj-66" value="Check&amp;nbsp;&lt;div&gt;In&lt;/div&gt;" style="rounded=0;whiteSpace=wrap;html=1;" parent="1" vertex="1">
          <mxGeometry x="1877" y="482.5" width="55" height="52.5" as="geometry" />
        </mxCell>
        <mxCell id="xPF3pnEDGq-6sLINl6rj-68" value="Pet Name #2" style="rounded=0;whiteSpace=wrap;html=1;" parent="1" vertex="1">
          <mxGeometry x="1967" y="482" width="100" height="22" as="geometry" />
        </mxCell>
        <mxCell id="xPF3pnEDGq-6sLINl6rj-69" value="Check-Out Time" style="rounded=0;whiteSpace=wrap;html=1;" parent="1" vertex="1">
          <mxGeometry x="1967" y="513" width="100" height="22" as="geometry" />
        </mxCell>
        <mxCell id="xPF3pnEDGq-6sLINl6rj-70" value="Check&amp;nbsp;&lt;div&gt;Out&lt;/div&gt;" style="rounded=0;whiteSpace=wrap;html=1;" parent="1" vertex="1">
          <mxGeometry x="2080" y="482.5" width="55" height="52.5" as="geometry" />
        </mxCell>
        <mxCell id="xPF3pnEDGq-6sLINl6rj-295" style="edgeStyle=orthogonalEdgeStyle;rounded=0;orthogonalLoop=1;jettySize=auto;html=1;exitX=1;exitY=0.5;exitDx=0;exitDy=0;entryX=1;entryY=1;entryDx=0;entryDy=0;" parent="1" source="xPF3pnEDGq-6sLINl6rj-71" target="xPF3pnEDGq-6sLINl6rj-46" edge="1">
          <mxGeometry relative="1" as="geometry">
            <Array as="points">
              <mxPoint x="2180" y="560" />
            </Array>
          </mxGeometry>
        </mxCell>
        <mxCell id="xPF3pnEDGq-6sLINl6rj-71" value="See All Bookings" style="rounded=0;whiteSpace=wrap;html=1;" parent="1" vertex="1">
          <mxGeometry x="1894.5" y="546" width="130" height="28" as="geometry" />
        </mxCell>
        <mxCell id="xPF3pnEDGq-6sLINl6rj-73" value="" style="rounded=0;whiteSpace=wrap;html=1;" parent="1" vertex="1">
          <mxGeometry x="1090" y="334.5" width="570" height="130" as="geometry" />
        </mxCell>
        <mxCell id="xPF3pnEDGq-6sLINl6rj-74" value="&lt;span style=&quot;font-size: 14px;&quot;&gt;Pets&lt;/span&gt;" style="rounded=0;whiteSpace=wrap;html=1;" parent="1" vertex="1">
          <mxGeometry x="1325" y="340" width="80" height="20" as="geometry" />
        </mxCell>
        <mxCell id="xPF3pnEDGq-6sLINl6rj-75" value="Name" style="rounded=0;whiteSpace=wrap;html=1;" parent="1" vertex="1">
          <mxGeometry x="1150" y="372.5" width="60" height="21" as="geometry" />
        </mxCell>
        <mxCell id="xPF3pnEDGq-6sLINl6rj-76" value="Breed" style="rounded=0;whiteSpace=wrap;html=1;" parent="1" vertex="1">
          <mxGeometry x="1295" y="371.5" width="90" height="21" as="geometry" />
        </mxCell>
        <mxCell id="xPF3pnEDGq-6sLINl6rj-77" value="Bookings" style="rounded=0;whiteSpace=wrap;html=1;" parent="1" vertex="1">
          <mxGeometry x="1395" y="372" width="80" height="21" as="geometry" />
        </mxCell>
        <mxCell id="xPF3pnEDGq-6sLINl6rj-78" value="Accommodations" style="rounded=0;whiteSpace=wrap;html=1;" parent="1" vertex="1">
          <mxGeometry x="1485" y="370" width="100" height="21" as="geometry" />
        </mxCell>
        <mxCell id="xPF3pnEDGq-6sLINl6rj-79" value="......." style="text;html=1;align=center;verticalAlign=middle;whiteSpace=wrap;rounded=0;" parent="1" vertex="1">
          <mxGeometry x="1150" y="392" width="60" height="20" as="geometry" />
        </mxCell>
        <mxCell id="xPF3pnEDGq-6sLINl6rj-80" value="....." style="text;html=1;align=center;verticalAlign=middle;whiteSpace=wrap;rounded=0;" parent="1" vertex="1">
          <mxGeometry x="1310" y="388.5" width="60" height="30" as="geometry" />
        </mxCell>
        <mxCell id="xPF3pnEDGq-6sLINl6rj-81" value="... (See More)" style="text;html=1;align=center;verticalAlign=middle;whiteSpace=wrap;rounded=0;" parent="1" vertex="1">
          <mxGeometry x="1392.5" y="392" width="85" height="30" as="geometry" />
        </mxCell>
        <mxCell id="xPF3pnEDGq-6sLINl6rj-82" value=".................." style="text;html=1;align=center;verticalAlign=middle;whiteSpace=wrap;rounded=0;" parent="1" vertex="1">
          <mxGeometry x="1505" y="388.5" width="60" height="30" as="geometry" />
        </mxCell>
        <mxCell id="xPF3pnEDGq-6sLINl6rj-83" value="Delete" style="rounded=0;whiteSpace=wrap;html=1;" parent="1" vertex="1">
          <mxGeometry x="1595" y="397.5" width="55" height="17" as="geometry" />
        </mxCell>
        <mxCell id="xPF3pnEDGq-6sLINl6rj-84" value="......." style="text;html=1;align=center;verticalAlign=middle;whiteSpace=wrap;rounded=0;" parent="1" vertex="1">
          <mxGeometry x="1150" y="412" width="60" height="20" as="geometry" />
        </mxCell>
        <mxCell id="xPF3pnEDGq-6sLINl6rj-85" value="....." style="text;html=1;align=center;verticalAlign=middle;whiteSpace=wrap;rounded=0;" parent="1" vertex="1">
          <mxGeometry x="1310" y="408.5" width="60" height="30" as="geometry" />
        </mxCell>
        <mxCell id="xPF3pnEDGq-6sLINl6rj-86" value="N/A" style="text;html=1;align=center;verticalAlign=middle;whiteSpace=wrap;rounded=0;" parent="1" vertex="1">
          <mxGeometry x="1405" y="411" width="60" height="30" as="geometry" />
        </mxCell>
        <mxCell id="xPF3pnEDGq-6sLINl6rj-87" value=".................." style="text;html=1;align=center;verticalAlign=middle;whiteSpace=wrap;rounded=0;" parent="1" vertex="1">
          <mxGeometry x="1505" y="404.5" width="60" height="30" as="geometry" />
        </mxCell>
        <mxCell id="xPF3pnEDGq-6sLINl6rj-88" value="Delete" style="rounded=0;whiteSpace=wrap;html=1;" parent="1" vertex="1">
          <mxGeometry x="1595" y="417.5" width="55" height="17" as="geometry" />
        </mxCell>
        <mxCell id="xPF3pnEDGq-6sLINl6rj-89" value="Edit" style="rounded=0;whiteSpace=wrap;html=1;" parent="1" vertex="1">
          <mxGeometry x="1100" y="396" width="40" height="18.5" as="geometry" />
        </mxCell>
        <mxCell id="xPF3pnEDGq-6sLINl6rj-90" value="Edit" style="rounded=0;whiteSpace=wrap;html=1;" parent="1" vertex="1">
          <mxGeometry x="1100" y="416.75" width="40" height="18.5" as="geometry" />
        </mxCell>
        <mxCell id="xPF3pnEDGq-6sLINl6rj-91" value="Add New Pet" style="rounded=0;whiteSpace=wrap;html=1;" parent="1" vertex="1">
          <mxGeometry x="1495" y="438.5" width="155" height="20" as="geometry" />
        </mxCell>
        <mxCell id="xPF3pnEDGq-6sLINl6rj-95" value="Owner" style="rounded=0;whiteSpace=wrap;html=1;" parent="1" vertex="1">
          <mxGeometry x="1220" y="372" width="70" height="20" as="geometry" />
        </mxCell>
        <mxCell id="xPF3pnEDGq-6sLINl6rj-96" value="... (See More)" style="text;html=1;align=center;verticalAlign=middle;whiteSpace=wrap;rounded=0;" parent="1" vertex="1">
          <mxGeometry x="1225" y="393.5" width="85" height="20" as="geometry" />
        </mxCell>
        <mxCell id="xPF3pnEDGq-6sLINl6rj-97" value="... (See More)" style="text;html=1;align=center;verticalAlign=middle;whiteSpace=wrap;rounded=0;" parent="1" vertex="1">
          <mxGeometry x="1225" y="410" width="85" height="22" as="geometry" />
        </mxCell>
        <mxCell id="xPF3pnEDGq-6sLINl6rj-269" value="&lt;font style=&quot;font-size: 14px;&quot;&gt;Owner Info&lt;/font&gt;" style="rounded=0;whiteSpace=wrap;html=1;" parent="1" vertex="1">
          <mxGeometry x="1295" y="503" width="130" height="30" as="geometry" />
        </mxCell>
        <mxCell id="xPF3pnEDGq-6sLINl6rj-272" value="Name" style="rounded=0;whiteSpace=wrap;html=1;" parent="1" vertex="1">
          <mxGeometry x="1105" y="546.5" width="95" height="27" as="geometry" />
        </mxCell>
        <mxCell id="xPF3pnEDGq-6sLINl6rj-273" value="Age" style="rounded=0;whiteSpace=wrap;html=1;" parent="1" vertex="1">
          <mxGeometry x="1215" y="546.5" width="95" height="27" as="geometry" />
        </mxCell>
        <mxCell id="xPF3pnEDGq-6sLINl6rj-274" value="Phone Number" style="rounded=0;whiteSpace=wrap;html=1;" parent="1" vertex="1">
          <mxGeometry x="1425" y="546.5" width="95" height="27" as="geometry" />
        </mxCell>
        <mxCell id="xPF3pnEDGq-6sLINl6rj-276" value="Email" style="rounded=0;whiteSpace=wrap;html=1;" parent="1" vertex="1">
          <mxGeometry x="1320" y="546.5" width="95" height="27" as="geometry" />
        </mxCell>
        <mxCell id="xPF3pnEDGq-6sLINl6rj-292" style="edgeStyle=orthogonalEdgeStyle;rounded=0;orthogonalLoop=1;jettySize=auto;html=1;exitX=0.5;exitY=0;exitDx=0;exitDy=0;" parent="1" source="xPF3pnEDGq-6sLINl6rj-277" edge="1">
          <mxGeometry relative="1" as="geometry">
            <mxPoint x="1577" y="470" as="targetPoint" />
          </mxGeometry>
        </mxCell>
        <mxCell id="xPF3pnEDGq-6sLINl6rj-277" value="Pets" style="rounded=0;whiteSpace=wrap;html=1;" parent="1" vertex="1">
          <mxGeometry x="1530" y="546.5" width="95" height="27" as="geometry" />
        </mxCell>
        <mxCell id="xPF3pnEDGq-6sLINl6rj-278" value="... (See More)" style="text;html=1;align=center;verticalAlign=middle;whiteSpace=wrap;rounded=0;" parent="1" vertex="1">
          <mxGeometry x="1535" y="580" width="85" height="20" as="geometry" />
        </mxCell>
        <mxCell id="xPF3pnEDGq-6sLINl6rj-279" style="edgeStyle=orthogonalEdgeStyle;rounded=0;orthogonalLoop=1;jettySize=auto;html=1;exitX=0.75;exitY=0;exitDx=0;exitDy=0;entryX=0.031;entryY=0.996;entryDx=0;entryDy=0;entryPerimeter=0;" parent="1" source="xPF3pnEDGq-6sLINl6rj-77" target="xPF3pnEDGq-6sLINl6rj-46" edge="1">
          <mxGeometry relative="1" as="geometry">
            <Array as="points">
              <mxPoint x="1455" y="310" />
              <mxPoint x="1676" y="310" />
            </Array>
          </mxGeometry>
        </mxCell>
        <mxCell id="xPF3pnEDGq-6sLINl6rj-283" value="......." style="text;html=1;align=center;verticalAlign=middle;whiteSpace=wrap;rounded=0;" parent="1" vertex="1">
          <mxGeometry x="1115" y="580" width="60" height="20" as="geometry" />
        </mxCell>
        <mxCell id="xPF3pnEDGq-6sLINl6rj-284" value="......." style="text;html=1;align=center;verticalAlign=middle;whiteSpace=wrap;rounded=0;" parent="1" vertex="1">
          <mxGeometry x="1232.5" y="579" width="60" height="20" as="geometry" />
        </mxCell>
        <mxCell id="xPF3pnEDGq-6sLINl6rj-285" value="............" style="text;html=1;align=center;verticalAlign=middle;whiteSpace=wrap;rounded=0;" parent="1" vertex="1">
          <mxGeometry x="1340" y="580" width="60" height="20" as="geometry" />
        </mxCell>
        <mxCell id="xPF3pnEDGq-6sLINl6rj-286" value="............." style="text;html=1;align=center;verticalAlign=middle;whiteSpace=wrap;rounded=0;" parent="1" vertex="1">
          <mxGeometry x="1442.5" y="578" width="60" height="21" as="geometry" />
        </mxCell>
        <mxCell id="xPF3pnEDGq-6sLINl6rj-291" style="edgeStyle=orthogonalEdgeStyle;rounded=0;orthogonalLoop=1;jettySize=auto;html=1;exitX=0.5;exitY=1;exitDx=0;exitDy=0;entryX=0.324;entryY=-0.01;entryDx=0;entryDy=0;entryPerimeter=0;" parent="1" source="xPF3pnEDGq-6sLINl6rj-97" target="xPF3pnEDGq-6sLINl6rj-271" edge="1">
          <mxGeometry relative="1" as="geometry" />
        </mxCell>
        <mxCell id="xPF3pnEDGq-6sLINl6rj-297" value="See Priority Bookings" style="rounded=0;whiteSpace=wrap;html=1;" parent="1" vertex="1">
          <mxGeometry x="1670" y="113" width="155" height="20" as="geometry" />
        </mxCell>
        <mxCell id="xPF3pnEDGq-6sLINl6rj-299" style="edgeStyle=orthogonalEdgeStyle;rounded=0;orthogonalLoop=1;jettySize=auto;html=1;exitX=0.25;exitY=1;exitDx=0;exitDy=0;entryX=0.119;entryY=0;entryDx=0;entryDy=0;entryPerimeter=0;" parent="1" source="xPF3pnEDGq-6sLINl6rj-46" target="xPF3pnEDGq-6sLINl6rj-51" edge="1">
          <mxGeometry relative="1" as="geometry" />
        </mxCell>
      </root>
    </mxGraphModel>
  </diagram>
</mxfile>
